<mxfile host="b86f316f-e78b-4171-9744-803c796c75ec" modified="2020-07-27T02:05:07.087Z" agent="5.0 (Windows NT 10.0; Win64; x64) AppleWebKit/537.36 (KHTML, like Gecko) Code/1.47.2 Chrome/78.0.3904.130 Electron/7.3.2 Safari/537.36" etag="52d45KqLLPap3dudt9XQ" version="13.1.3">
    <diagram id="xr1j-sE8Ixn4QuCE4N_I" name="第 1 页">
        <mxGraphModel dx="1655" dy="940" grid="1" gridSize="10" guides="1" tooltips="1" connect="1" arrows="1" fold="1" page="1" pageScale="1" pageWidth="827" pageHeight="1169" background="none" math="0" shadow="0">
            <root>
                <mxCell id="0"/>
                <mxCell id="1" parent="0"/>
                <mxCell id="5" value="&lt;h1&gt;Heading&lt;/h1&gt;&lt;p&gt;Lorem ipsum dolor sit amet, consectetur adipisicing elit, sed do eiusmod tempor incididunt ut labore et dolore magna aliqua.&lt;/p&gt;" style="text;html=1;strokeColor=none;fillColor=none;spacing=5;spacingTop=-20;whiteSpace=wrap;overflow=hidden;rounded=0;" vertex="1" parent="1">
                    <mxGeometry x="-508" y="50" width="190" height="120" as="geometry"/>
                </mxCell>
                <mxCell id="3pcpP0WykbB1FntVSxFF-9" value="&lt;b&gt;&lt;font style=&quot;font-size: 20px&quot;&gt;大苏打&lt;/font&gt;&lt;/b&gt;" style="shape=tapeData;whiteSpace=wrap;html=1;perimeter=ellipsePerimeter;rotation=80;" vertex="1" parent="1">
                    <mxGeometry x="-700" y="100" width="140" height="140" as="geometry"/>
                </mxCell>
            </root>
        </mxGraphModel>
    </diagram>
</mxfile>